<?xml version="1.0" standalone="no"?>
<!DOCTYPE svg PUBLIC "-//W3C//DTD SVG 20010904//EN"
 "http://www.w3.org/TR/2001/REC-SVG-20010904/DTD/svg10.dtd">
<svg version="1.0" xmlns="http://www.w3.org/2000/svg"
 width="612.000000pt" height="612.000000pt" viewBox="0 0 612.000000 612.000000"
 preserveAspectRatio="xMidYMid meet">
<metadata>
Created by potrace 1.14, written by Peter Selinger 2001-2017
</metadata>
<g transform="translate(0.000000,612.000000) scale(0.100000,-0.100000)"
fill="#000000" stroke="none">
<path d="M3300 5570 c-14 -3 -35 -5 -47 -4 -13 1 -23 -1 -23 -5 0 -3 -10 -6
-22 -7 -25 -1 -55 -7 -105 -23 -45 -13 -176 -81 -185 -95 -4 -6 -8 -8 -8 -4 0
11 -160 -136 -160 -148 0 -3 -9 -15 -20 -26 -11 -12 -30 -41 -43 -65 -12 -24
-30 -59 -39 -76 -9 -18 -17 -40 -18 -49 0 -10 -4 -18 -8 -18 -9 0 -28 -73 -39
-151 -13 -86 -3 -295 15 -324 4 -5 8 -21 10 -35 2 -13 6 -27 10 -30 8 -6 15
-28 16 -52 0 -10 3 -18 6 -18 3 0 11 -15 19 -32 29 -72 57 -118 74 -124 9 -3
17 -8 17 -12 0 -4 10 -19 23 -33 12 -15 38 -46 57 -69 19 -24 45 -53 57 -66
17 -17 21 -28 15 -44 -4 -12 -11 -21 -15 -21 -4 1 -8 1 -9 0 -2 -1 -16 -2 -33
-4 -16 -1 -31 -4 -32 -5 -2 -1 -6 -3 -10 -4 -18 -4 -88 -20 -93 -20 -3 -1 -9
-4 -15 -7 -5 -3 -39 -14 -75 -24 -36 -11 -68 -23 -71 -28 -3 -5 -9 -8 -13 -8
-10 1 -81 -34 -88 -44 -4 -5 -8 -6 -8 -2 0 8 -6 4 -60 -43 -19 -16 -38 -30
-42 -30 -3 0 -10 -9 -13 -21 -4 -11 -9 -18 -12 -16 -6 7 -43 -30 -43 -43 0 -5
-8 -14 -17 -19 -10 -6 -13 -11 -8 -11 7 0 7 -3 0 -8 -17 -12 -50 -64 -74 -117
-39 -82 -61 -135 -60 -143 1 -4 0 -9 -1 -12 -1 -3 -3 -13 -6 -22 -2 -10 -6
-26 -8 -35 -3 -10 -5 -20 -5 -23 -1 -3 -15 -21 -31 -40 -16 -19 -30 -39 -30
-44 0 -5 -10 -18 -23 -30 -12 -11 -24 -24 -25 -28 -9 -27 -16 -44 -21 -48 -17
-14 -81 -167 -73 -174 3 -3 -1 -6 -8 -6 -7 0 -11 -3 -7 -6 3 -3 2 -16 -3 -28
-4 -13 -11 -40 -14 -61 -4 -22 -12 -43 -19 -47 -7 -4 -7 -8 -1 -8 5 0 9 -14 7
-32 -8 -85 -8 -138 0 -138 5 0 4 -6 -2 -13 -6 -8 -8 -17 -5 -20 3 -3 8 -25 9
-49 6 -70 14 -113 31 -165 9 -26 17 -52 18 -58 2 -5 10 -27 19 -49 9 -21 17
-42 17 -47 0 -5 4 -9 9 -9 13 0 22 -47 24 -128 2 -64 5 -77 26 -93 13 -10 34
-19 47 -19 14 0 24 -6 24 -14 0 -22 50 -76 70 -76 38 0 60 -63 23 -68 -12 -2
-25 -12 -28 -23 -5 -14 -12 -18 -23 -14 -9 3 -13 3 -9 -1 4 -4 -5 -17 -18 -30
-14 -13 -25 -27 -25 -32 0 -5 -7 -15 -15 -22 -9 -7 -13 -15 -10 -18 3 -3 0
-11 -6 -18 -8 -10 -21 -173 -20 -239 1 -5 2 -35 4 -65 1 -30 -1 -63 -6 -72 -4
-10 -4 -18 1 -18 11 0 9 -30 -2 -49 -5 -7 -4 -16 1 -20 5 -3 8 -26 8 -51 -3
-109 48 -176 133 -173 6 1 12 -3 12 -7 0 -11 233 -9 248 2 8 7 12 7 12 -1 0
-9 5 -9 20 -1 11 6 20 8 20 4 0 -3 7 0 17 7 9 8 17 12 17 10 1 -2 18 4 38 13
32 16 89 71 87 86 0 3 5 18 11 34 8 23 8 31 -2 38 -10 6 -10 8 1 8 9 0 10 4 4
12 -5 7 -8 28 -8 45 1 18 -2 33 -5 33 -4 0 -6 10 -5 22 1 13 -1 30 -6 39 -5 9
-3 21 3 27 8 8 8 12 2 12 -6 0 -11 6 -11 13 -2 29 -14 144 -17 167 -4 27 11
53 25 44 5 -3 9 0 9 6 0 6 14 16 30 21 17 6 30 15 30 21 0 5 4 7 9 3 6 -3 35
15 66 40 31 26 65 47 76 48 10 1 19 4 19 7 0 3 12 6 28 6 40 0 122 15 122 23
0 4 13 8 29 9 l30 2 -1 -110 c0 -60 -5 -110 -10 -110 -5 0 -4 -8 1 -19 6 -10
8 -20 6 -23 -3 -3 -7 -31 -10 -64 -5 -56 -12 -99 -15 -99 -1 0 -3 -11 -6 -24
-2 -14 -9 -30 -15 -38 -6 -7 -8 -13 -5 -13 4 0 1 -10 -6 -22 -7 -13 -11 -26
-10 -30 1 -5 -1 -8 -6 -8 -16 0 -22 -160 -7 -190 13 -24 90 -100 103 -100 4
-1 23 -14 42 -30 19 -17 40 -30 48 -30 7 0 10 -4 7 -10 -3 -5 -1 -10 5 -10 7
0 25 -9 41 -21 16 -11 29 -17 29 -13 0 4 8 -3 19 -14 10 -12 21 -19 25 -15 3
3 17 -3 29 -15 13 -12 27 -19 30 -15 4 3 7 1 7 -6 0 -6 6 -11 13 -10 6 1 19
-1 27 -4 48 -19 94 -25 113 -16 15 8 18 8 12 -1 -5 -8 -2 -10 11 -6 11 3 42 8
69 11 28 3 61 7 75 10 14 3 41 8 60 11 19 3 38 8 41 10 3 2 21 6 40 9 19 3 40
13 47 22 6 9 12 13 12 8 0 -5 6 0 14 10 8 11 12 27 11 37 -2 10 0 18 4 18 7 0
6 84 -3 149 -1 13 -11 30 -21 37 -10 8 -15 14 -11 14 14 0 -66 51 -85 55 -9 2
-32 8 -50 13 -19 5 -44 8 -56 7 -13 -1 -23 1 -23 5 0 3 -10 6 -21 7 -12 1 -31
11 -44 23 -12 11 -25 17 -30 13 -4 -5 -5 -3 -2 3 3 6 -8 27 -24 47 -17 20 -28
41 -24 46 3 5 1 12 -4 16 -11 6 -10 185 0 185 4 0 5 10 5 22 -1 13 0 28 3 33
3 6 6 19 7 30 1 11 4 38 8 60 22 125 26 265 10 350 -6 34 -10 69 -8 78 1 9 -1
17 -6 17 -4 0 -7 12 -7 26 0 14 -5 30 -11 36 -7 7 -4 24 11 57 12 25 25 48 28
51 3 3 16 34 28 70 13 36 26 72 29 80 3 8 6 22 7 30 1 8 5 23 9 32 4 9 5 22 1
28 -3 5 -1 10 4 10 6 0 11 11 11 25 0 14 8 29 20 35 11 6 20 8 20 5 0 -15 70
34 120 84 31 31 70 68 87 83 28 25 90 134 85 151 -1 4 2 7 7 7 8 0 27 85 23
103 -1 4 1 7 5 7 5 0 9 19 10 43 7 148 7 207 1 207 -4 0 -5 7 -2 15 3 8 2 20
-2 27 -5 7 -10 22 -12 33 -4 26 -8 44 -18 75 -4 14 -6 27 -5 29 2 2 -1 7 -6
10 -4 3 -21 32 -37 63 -15 32 -36 66 -45 77 -9 11 -27 34 -41 52 -41 53 -117
128 -124 122 -3 -4 -6 -2 -6 4 0 6 -22 25 -50 43 -27 18 -50 37 -50 43 0 6 -3
7 -6 4 -4 -4 -19 2 -34 13 -16 11 -33 20 -40 20 -6 0 -8 6 -4 13 4 6 4 9 -1 5
-4 -4 -25 2 -47 13 -27 14 -38 25 -34 35 3 9 6 20 6 25 0 5 7 9 16 9 14 0 72
28 84 40 3 3 24 14 48 24 23 11 42 24 42 29 0 6 3 7 7 4 3 -4 21 4 39 18 20
15 35 21 39 15 4 -6 16 -9 28 -7 31 4 78 37 70 50 -3 5 -1 7 4 4 6 -4 23 10
39 31 15 20 32 39 36 40 4 2 8 9 8 15 0 7 9 18 21 25 12 7 19 16 16 19 -3 3 5
17 19 31 13 15 24 32 24 38 0 6 7 17 15 24 8 7 15 21 15 31 0 11 4 19 10 19 5
0 12 16 16 35 3 19 10 35 14 35 4 0 10 12 13 28 3 15 8 38 12 52 13 49 16 77
20 187 2 62 0 115 -4 118 -5 2 -7 18 -5 35 2 16 -1 30 -7 30 -6 0 -8 4 -5 9
13 20 -86 251 -107 251 -6 0 -7 3 -4 7 12 11 -112 153 -134 153 -5 0 -9 6 -9
13 0 8 -12 20 -27 28 -16 8 -30 17 -33 20 -11 12 -116 67 -135 71 -11 1 -22 6
-25 9 -12 14 -100 36 -100 25 0 -7 -3 -7 -8 -1 -9 13 -29 18 -69 19 -18 1 -33
5 -33 11 0 5 -5 4 -11 -2 -7 -7 -22 -8 -38 -4 -14 4 -37 5 -51 1z m200 -2115
c0 11 58 -53 95 -105 47 -65 55 -76 75 -98 14 -17 64 -116 66 -134 1 -4 2 -9
4 -10 4 -6 8 -38 4 -38 -10 0 -112 56 -141 78 -17 13 -37 22 -45 21 -7 -1 -19
-1 -25 0 -15 1 -113 98 -113 111 0 5 -7 16 -16 24 -8 9 -11 16 -7 16 5 0 10
19 12 42 4 69 33 111 68 97 13 -5 23 -6 23 -4z"/>
</g>
</svg>
